<svg height="47" viewBox="0 0 315 47" width="315" xmlns="http://www.w3.org/2000/svg"><path d="m57.3941435 39.4203865v-25.5983209h-6.9131984v-5.50188182h20.0862278v5.50188182h-6.9137822v25.5983209zm10.1353677-11.2839865c0-6.5276564 3.8308695-11.7969904 10.0901166-11.7969904 6.2125364 0 9.7158464 5.0362035 9.7158464 12.030121v1.5858708h-14.1533723c.233554 3.0767409 2.0552752 5.5012989 5.4651635 5.5012989 1.5881672 0 3.6434424-.7920611 4.904634-2.1914275l2.569094 3.3570805c-2.0085644 2.1920103-5.0447664 3.3576632-8.0809684 3.3576632-6.3526687 0-10.5105138-4.7558639-10.5105138-11.8436165zm33.1647848 11.2839865-4.017129-7.5073876-4.0638396 7.5073876h-6.0724039l6.5862227-11.4706075-6.2592471-11.0503897h6.1191147l3.6901532 7.0877526 3.643442-7.0877526h6.119115l-6.259247 11.0503897 6.632934 11.4706075zm7.566507 0v-22.5209972h5.605296v8.3932838h7.053331v-8.3932838h5.652007v22.5209972h-5.652007v-9.2319711h-7.053331v9.2319711zm20.459097-11.2836951c0-6.2945258 3.550604-11.7969904 10.182954-11.7969904 6.726939 0 10.230249 5.5024646 10.230249 11.7969904 0 6.3411519-3.50331 11.8430337-10.230249 11.8430337-6.63235 0-10.182954-5.5018818-10.182954-11.8430337zm39.564164 11.2836951v-25.5983209h-10.323087v25.5983209h-6.259247v-31.10020272h22.888292v31.10020272zm14.806506-2.8443679v11.4239814h-5.60588v-31.1002027h5.60588v2.8441931c1.40074-2.2386365 3.50331-3.4042894 5.698718-3.4042894 5.091477 0 8.361233 4.4294811 8.361233 11.7969904 0 7.3203003-3.269756 11.8430337-8.361233 11.8430337-2.148697 0-4.297978-1.0724007-5.698718-3.4037065zm15.834377-8.4393272c0-6.2945258 3.550021-11.7969904 10.182955-11.7969904 6.726355 0 10.230249 5.5024646 10.230249 11.7969904 0 6.3411519-3.503894 11.8430337-10.230249 11.8430337-6.632934 0-10.182955-5.5018818-10.182955-11.8430337zm36.761341-6.3410936h-8.968473v17.6246722h-5.605296v-22.5204145h14.573769zm7.473144 14.7804208v11.4239814h-5.605296v-31.1002027h5.605296v2.8441931c1.401324-2.2386365 3.503894-3.4042894 5.699302-3.4042894 5.090893 0 8.361233 4.4294811 8.361233 11.7969904 0 7.3203003-3.27034 11.8430337-8.361233 11.8430337-2.149281 0-4.297978-1.0724007-5.699302-3.4037065zm15.554463-8.4396186c0-6.5276564 3.829702-11.7969904 10.089533-11.7969904 6.212536 0 9.71643 5.0362035 9.71643 12.030121v1.5858708h-14.153956c.233554 3.0767409 2.055275 5.5012989 5.465163 5.5012989 1.588168 0 3.643443-.7920611 4.904634-2.1914275l2.569678 3.3570805c-2.009148 2.1920103-5.04535 3.3576632-8.081552 3.3576632-6.352669 0-10.50993-4.7558639-10.50993-11.8436165zm21.206294.0002914c0-6.854622 4.110551-11.7969904 10.323087-11.7969904 3.550605 0 5.886145 1.4454096 7.193463 3.0312804l-2.802648 3.8699677c-1.027637-1.2594879-2.242118-1.9588797-3.783574-1.9588797-3.223046 0-5.138188 2.9380282-5.138188 6.854622s1.915142 6.9012481 5.138188 6.9012481c1.541456 0 2.755937-.6999746 3.783574-1.9594625l2.802648 3.8705505c-1.307318 1.5858708-3.642858 3.0306976-7.193463 3.0306976-6.212536 0-10.323087-4.9417856-10.323087-11.8430337zm17.563261 0c0-6.854622 4.11055-11.7969904 10.323087-11.7969904 3.550605 0 5.886144 1.4454096 7.193463 3.0312804l-2.802648 3.8699677c-1.027638-1.2594879-2.242118-1.9588797-3.783575-1.9588797-3.223045 0-5.138188 2.9380282-5.138188 6.854622s1.915143 6.9012481 5.138188 6.9012481c1.541457 0 2.755937-.6999746 3.783575-1.9594625l2.802648 3.8705505c-1.307319 1.5858708-3.642858 3.0306976-7.193463 3.0306976-6.212537 0-10.323087-4.9417856-10.323087-11.8430337zm-277.7142718-13.7442136c.4910473.893473.482289 2.5714304-.0274426 3.4445044l-12.2931147 21.5820638h-7.4486209l11.1078282-19.2175369 6.0157671-10.3952927zm-.7427017 25.0265099 7.8374883-13.6206543 7.8585082 13.6206543zm11.3127718-23.3204603-.0648112-1.1405913 3.0350342 5.2553461 11.0868083 19.2058804h-7.3832258c-2.1767233-3.7691387-8.7973952-15.2426604-9.0046744-15.6010987.0677307-.1188966.1337097-.2372104.1337097-.2372104 1.5210204-2.9368625 2.1942398-5.2396098 2.1971592-7.4823261zm-3.7869613 6.3063572s-.1196964.2208912-.2977814.5391145c-.1815882.3217202-9.4548497 16.4747555-9.4548497 16.4747555h-7.24542892l4.97411632-8.651476 6.6930737-11.6262222.1202803-.2045721c.8921763-1.551484.8962635-4.09727.0175165-5.652251l-.8314522-1.4792136-2.2508767-3.99236121 2.8400167-4.90623314-.0029195.00174848 1.1029588-1.90817383 4.6798382 8.34782339c1.0276376 2.00492301 1.5554697 4.36595301 1.5543019 6.75029611-.0005839 2.2077466-.888673 4.3991741-1.898794 6.3067651zm186.993141 5.7318068c0-3.6834632-1.35403-6.854622-4.437526-6.854622-2.989492 0-4.344105 3.1711588-4.344105 6.854622 0 3.7295065 1.354613 6.9012481 4.344105 6.9012481 3.083496 0 4.437526-3.1717416 4.437526-6.9012481zm37.8824 0c0-3.9165938-1.49533-6.854622-4.391399-6.854622-1.494746 0-3.129624 1.1190268-3.876997 2.6116454v8.4859532c.747373 1.4459925 2.382251 2.6582715 3.876997 2.6582715 2.896069 0 4.391399-2.9380282 4.391399-6.9012481zm-60.069446 0c0-3.9165938-1.494746-6.854622-4.391399-6.854622-1.494162 0-3.129624 1.1190268-3.876413 2.6116454v8.4859532c.746789 1.4459925 2.382251 2.6582715 3.876413 2.6582715 2.896653 0 4.391399-2.9380282 4.391399-6.9012481zm-113.8321758-7.2739656c-3.1296235 0-4.2506827 2.9374453-4.3441043 5.2687512h8.7349195c-.0934216-2.3313059-1.1210592-5.2687512-4.3908152-5.2687512zm65.8147578 7.2739656c0-3.6834632-1.354613-6.854622-4.43811-6.854622-2.989491 0-4.344104 3.1711588-4.344104 6.854622 0 3.7295065 1.354613 6.9012481 4.344104 6.9012481 3.083497 0 4.43811-3.1717416 4.43811-6.9012481zm125.369042-7.2739656c-3.129623 0-4.250683 2.9374453-4.344104 5.2687512h8.735503c-.094005-2.3313059-1.121059-5.2687512-4.391399-5.2687512z" fill="#b20838" fill-rule="evenodd" transform="translate(0 -1)"/></svg>